<mxfile host="app.diagrams.net" agent="Mozilla/5.0 (Windows NT 10.0; Win64; x64) AppleWebKit/537.36 (KHTML, like Gecko) Chrome/134.0.0.0 Safari/537.36" version="26.1.3">
  <diagram name="Page-1" id="74e2e168-ea6b-b213-b513-2b3c1d86103e">
    <mxGraphModel dx="1050" dy="557" grid="1" gridSize="10" guides="1" tooltips="1" connect="1" arrows="1" fold="1" page="1" pageScale="1" pageWidth="1100" pageHeight="850" background="none" math="0" shadow="0">
      <root>
        <mxCell id="0" />
        <mxCell id="1" parent="0" />
        <mxCell id="fE4-dgEbrBtRc29Lr3Ju-1" value="&lt;font style=&quot;font-size: 18px;&quot;&gt;合并检修计划&lt;/font&gt;" style="swimlane;html=1;childLayout=stackLayout;startSize=20;rounded=0;shadow=0;labelBackgroundColor=none;strokeWidth=1;fontFamily=Verdana;fontSize=8;align=center;" vertex="1" parent="1">
          <mxGeometry x="70" y="20" width="960" height="980" as="geometry" />
        </mxCell>
        <mxCell id="fE4-dgEbrBtRc29Lr3Ju-2" value="接收请求" style="swimlane;html=1;startSize=20;" vertex="1" parent="fE4-dgEbrBtRc29Lr3Ju-1">
          <mxGeometry y="20" width="160" height="960" as="geometry">
            <mxRectangle y="20" width="40" height="730" as="alternateBounds" />
          </mxGeometry>
        </mxCell>
        <mxCell id="fE4-dgEbrBtRc29Lr3Ju-3" style="edgeStyle=orthogonalEdgeStyle;rounded=0;orthogonalLoop=1;jettySize=auto;html=1;exitX=0.5;exitY=1;exitDx=0;exitDy=0;entryX=0.5;entryY=0;entryDx=0;entryDy=0;" edge="1" parent="fE4-dgEbrBtRc29Lr3Ju-2" source="fE4-dgEbrBtRc29Lr3Ju-4" target="fE4-dgEbrBtRc29Lr3Ju-5">
          <mxGeometry relative="1" as="geometry" />
        </mxCell>
        <mxCell id="fE4-dgEbrBtRc29Lr3Ju-4" value="&lt;font style=&quot;font-size: 12px;&quot;&gt;开始&lt;/font&gt;" style="rounded=1;whiteSpace=wrap;html=1;shadow=0;labelBackgroundColor=none;strokeWidth=1;fontFamily=Verdana;fontSize=8;align=center;" vertex="1" parent="fE4-dgEbrBtRc29Lr3Ju-2">
          <mxGeometry x="20" y="60" width="100" height="60" as="geometry" />
        </mxCell>
        <mxCell id="fE4-dgEbrBtRc29Lr3Ju-5" value="&lt;font style=&quot;font-size: 12px;&quot;&gt;参数验证&lt;/font&gt;" style="rhombus;whiteSpace=wrap;html=1;rounded=0;shadow=0;labelBackgroundColor=none;strokeWidth=1;fontFamily=Verdana;fontSize=8;align=center;" vertex="1" parent="fE4-dgEbrBtRc29Lr3Ju-2">
          <mxGeometry x="20" y="160" width="100" height="75" as="geometry" />
        </mxCell>
        <mxCell id="fE4-dgEbrBtRc29Lr3Ju-6" style="edgeStyle=orthogonalEdgeStyle;rounded=0;orthogonalLoop=1;jettySize=auto;html=1;exitX=0.5;exitY=1;exitDx=0;exitDy=0;entryX=0.5;entryY=0;entryDx=0;entryDy=0;" edge="1" parent="fE4-dgEbrBtRc29Lr3Ju-2" source="fE4-dgEbrBtRc29Lr3Ju-5" target="fE4-dgEbrBtRc29Lr3Ju-8">
          <mxGeometry relative="1" as="geometry">
            <mxPoint x="70" y="980" as="targetPoint" />
          </mxGeometry>
        </mxCell>
        <mxCell id="fE4-dgEbrBtRc29Lr3Ju-7" value="否" style="edgeLabel;html=1;align=center;verticalAlign=middle;resizable=0;points=[];" vertex="1" connectable="0" parent="fE4-dgEbrBtRc29Lr3Ju-6">
          <mxGeometry x="-0.24" y="-1" relative="1" as="geometry">
            <mxPoint as="offset" />
          </mxGeometry>
        </mxCell>
        <mxCell id="fE4-dgEbrBtRc29Lr3Ju-8" value="&lt;span style=&quot;font-size: 12px;&quot;&gt;失败返回&lt;/span&gt;" style="whiteSpace=wrap;html=1;fontSize=8;fontFamily=Verdana;rounded=0;shadow=0;labelBackgroundColor=none;strokeWidth=1;" vertex="1" parent="fE4-dgEbrBtRc29Lr3Ju-2">
          <mxGeometry x="20" y="880" width="100" height="60" as="geometry" />
        </mxCell>
        <mxCell id="fE4-dgEbrBtRc29Lr3Ju-9" value="预处理和合并规则校验" style="swimlane;html=1;startSize=20;" vertex="1" parent="fE4-dgEbrBtRc29Lr3Ju-1">
          <mxGeometry x="160" y="20" width="160" height="960" as="geometry" />
        </mxCell>
        <mxCell id="fE4-dgEbrBtRc29Lr3Ju-90" style="edgeStyle=orthogonalEdgeStyle;rounded=0;orthogonalLoop=1;jettySize=auto;html=1;exitX=0.5;exitY=1;exitDx=0;exitDy=0;entryX=0.5;entryY=0;entryDx=0;entryDy=0;" edge="1" parent="fE4-dgEbrBtRc29Lr3Ju-9" source="fE4-dgEbrBtRc29Lr3Ju-87">
          <mxGeometry relative="1" as="geometry">
            <mxPoint x="80" y="270" as="targetPoint" />
          </mxGeometry>
        </mxCell>
        <mxCell id="fE4-dgEbrBtRc29Lr3Ju-87" value="&lt;span style=&quot;font-size: 12px;&quot;&gt;拆分&lt;/span&gt;&lt;span style=&quot;font-size: 12px; background-color: transparent; color: light-dark(rgb(0, 0, 0), rgb(255, 255, 255));&quot;&gt;已合并的计划&lt;/span&gt;&lt;div&gt;&lt;span style=&quot;font-size: 12px;&quot;&gt;归纳待合并的计划&lt;/span&gt;&lt;/div&gt;" style="whiteSpace=wrap;html=1;fontSize=8;fontFamily=Verdana;rounded=0;shadow=0;labelBackgroundColor=none;strokeWidth=1;" vertex="1" parent="fE4-dgEbrBtRc29Lr3Ju-9">
          <mxGeometry x="30" y="167.5" width="100" height="60" as="geometry" />
        </mxCell>
        <mxCell id="fE4-dgEbrBtRc29Lr3Ju-95" style="edgeStyle=orthogonalEdgeStyle;rounded=0;orthogonalLoop=1;jettySize=auto;html=1;exitX=0;exitY=0.5;exitDx=0;exitDy=0;" edge="1" parent="fE4-dgEbrBtRc29Lr3Ju-9" source="fE4-dgEbrBtRc29Lr3Ju-92">
          <mxGeometry relative="1" as="geometry">
            <mxPoint x="-90" y="407" as="targetPoint" />
          </mxGeometry>
        </mxCell>
        <mxCell id="fE4-dgEbrBtRc29Lr3Ju-97" value="否" style="edgeLabel;html=1;align=center;verticalAlign=middle;resizable=0;points=[];" vertex="1" connectable="0" parent="fE4-dgEbrBtRc29Lr3Ju-95">
          <mxGeometry x="-0.728" relative="1" as="geometry">
            <mxPoint as="offset" />
          </mxGeometry>
        </mxCell>
        <mxCell id="fE4-dgEbrBtRc29Lr3Ju-96" style="edgeStyle=orthogonalEdgeStyle;rounded=0;orthogonalLoop=1;jettySize=auto;html=1;" edge="1" parent="fE4-dgEbrBtRc29Lr3Ju-9" source="fE4-dgEbrBtRc29Lr3Ju-93">
          <mxGeometry relative="1" as="geometry">
            <mxPoint x="-90" y="528" as="targetPoint" />
            <Array as="points">
              <mxPoint x="-80" y="528" />
              <mxPoint x="-90" y="528" />
            </Array>
          </mxGeometry>
        </mxCell>
        <mxCell id="fE4-dgEbrBtRc29Lr3Ju-98" value="否" style="edgeLabel;html=1;align=center;verticalAlign=middle;resizable=0;points=[];" vertex="1" connectable="0" parent="fE4-dgEbrBtRc29Lr3Ju-96">
          <mxGeometry x="-0.7387" relative="1" as="geometry">
            <mxPoint as="offset" />
          </mxGeometry>
        </mxCell>
        <mxCell id="fE4-dgEbrBtRc29Lr3Ju-92" value="&lt;font style=&quot;font-size: 12px;&quot;&gt;待合并计划&lt;/font&gt;&lt;div&gt;&lt;font style=&quot;font-size: 12px;&quot;&gt;是否正在合并处理&lt;/font&gt;&lt;/div&gt;" style="rhombus;whiteSpace=wrap;html=1;rounded=0;shadow=0;labelBackgroundColor=none;strokeWidth=1;fontFamily=Verdana;fontSize=8;align=center;" vertex="1" parent="fE4-dgEbrBtRc29Lr3Ju-9">
          <mxGeometry x="30" y="370" width="100" height="75" as="geometry" />
        </mxCell>
        <mxCell id="fE4-dgEbrBtRc29Lr3Ju-93" value="&lt;span style=&quot;font-size: 12px;&quot;&gt;待合并计划&lt;/span&gt;&lt;div&gt;&lt;span style=&quot;font-size: 12px;&quot;&gt;是否通过规则校验&lt;/span&gt;&lt;/div&gt;" style="rhombus;whiteSpace=wrap;html=1;rounded=0;shadow=0;labelBackgroundColor=none;strokeWidth=1;fontFamily=Verdana;fontSize=8;align=center;" vertex="1" parent="fE4-dgEbrBtRc29Lr3Ju-9">
          <mxGeometry x="30" y="490" width="100" height="75" as="geometry" />
        </mxCell>
        <mxCell id="fE4-dgEbrBtRc29Lr3Ju-94" style="edgeStyle=orthogonalEdgeStyle;rounded=0;orthogonalLoop=1;jettySize=auto;html=1;exitX=0.5;exitY=1;exitDx=0;exitDy=0;" edge="1" parent="fE4-dgEbrBtRc29Lr3Ju-9" source="fE4-dgEbrBtRc29Lr3Ju-92" target="fE4-dgEbrBtRc29Lr3Ju-93">
          <mxGeometry relative="1" as="geometry" />
        </mxCell>
        <mxCell id="fE4-dgEbrBtRc29Lr3Ju-99" value="是" style="edgeLabel;html=1;align=center;verticalAlign=middle;resizable=0;points=[];" vertex="1" connectable="0" parent="fE4-dgEbrBtRc29Lr3Ju-94">
          <mxGeometry x="-0.4155" relative="1" as="geometry">
            <mxPoint as="offset" />
          </mxGeometry>
        </mxCell>
        <mxCell id="fE4-dgEbrBtRc29Lr3Ju-104" style="edgeStyle=orthogonalEdgeStyle;rounded=0;orthogonalLoop=1;jettySize=auto;html=1;exitX=0.5;exitY=1;exitDx=0;exitDy=0;" edge="1" parent="fE4-dgEbrBtRc29Lr3Ju-9" source="fE4-dgEbrBtRc29Lr3Ju-103" target="fE4-dgEbrBtRc29Lr3Ju-92">
          <mxGeometry relative="1" as="geometry" />
        </mxCell>
        <mxCell id="fE4-dgEbrBtRc29Lr3Ju-103" value="&lt;span style=&quot;font-size: 12px;&quot;&gt;查询&lt;/span&gt;&lt;div&gt;&lt;span style=&quot;font-size: 12px;&quot;&gt;待合并计划数据&lt;/span&gt;&lt;/div&gt;" style="whiteSpace=wrap;html=1;fontSize=8;fontFamily=Verdana;rounded=0;shadow=0;labelBackgroundColor=none;strokeWidth=1;" vertex="1" parent="fE4-dgEbrBtRc29Lr3Ju-9">
          <mxGeometry x="30" y="270" width="100" height="60" as="geometry" />
        </mxCell>
        <mxCell id="fE4-dgEbrBtRc29Lr3Ju-13" value="新检修计划创建" style="swimlane;html=1;startSize=20;" vertex="1" parent="fE4-dgEbrBtRc29Lr3Ju-1">
          <mxGeometry x="320" y="20" width="160" height="960" as="geometry" />
        </mxCell>
        <mxCell id="fE4-dgEbrBtRc29Lr3Ju-17" style="edgeStyle=orthogonalEdgeStyle;rounded=0;orthogonalLoop=1;jettySize=auto;html=1;exitX=0.5;exitY=1;exitDx=0;exitDy=0;entryX=0.5;entryY=0;entryDx=0;entryDy=0;" edge="1" parent="fE4-dgEbrBtRc29Lr3Ju-13" source="fE4-dgEbrBtRc29Lr3Ju-18" target="fE4-dgEbrBtRc29Lr3Ju-20">
          <mxGeometry relative="1" as="geometry" />
        </mxCell>
        <mxCell id="fE4-dgEbrBtRc29Lr3Ju-18" value="&lt;span style=&quot;font-size: 12px;&quot;&gt;查询&lt;/span&gt;&lt;div&gt;&lt;span style=&quot;font-size: 12px;&quot;&gt;待合并计划关联的工作任务&lt;/span&gt;&lt;/div&gt;" style="whiteSpace=wrap;html=1;fontSize=8;fontFamily=Verdana;rounded=0;shadow=0;labelBackgroundColor=none;strokeWidth=1;" vertex="1" parent="fE4-dgEbrBtRc29Lr3Ju-13">
          <mxGeometry x="30" y="270" width="100" height="60" as="geometry" />
        </mxCell>
        <mxCell id="fE4-dgEbrBtRc29Lr3Ju-107" style="edgeStyle=orthogonalEdgeStyle;rounded=0;orthogonalLoop=1;jettySize=auto;html=1;exitX=0.5;exitY=1;exitDx=0;exitDy=0;entryX=0.5;entryY=0;entryDx=0;entryDy=0;" edge="1" parent="fE4-dgEbrBtRc29Lr3Ju-13" source="fE4-dgEbrBtRc29Lr3Ju-20" target="fE4-dgEbrBtRc29Lr3Ju-106">
          <mxGeometry relative="1" as="geometry" />
        </mxCell>
        <mxCell id="fE4-dgEbrBtRc29Lr3Ju-20" value="&lt;span style=&quot;font-size: 12px;&quot;&gt;查询&lt;/span&gt;&lt;div&gt;&lt;span style=&quot;font-size: 12px;&quot;&gt;待合并计划关联的&lt;/span&gt;&lt;/div&gt;&lt;div&gt;&lt;span style=&quot;font-size: 12px;&quot;&gt;设备&lt;/span&gt;&lt;/div&gt;" style="whiteSpace=wrap;html=1;fontSize=8;fontFamily=Verdana;rounded=0;shadow=0;labelBackgroundColor=none;strokeWidth=1;" vertex="1" parent="fE4-dgEbrBtRc29Lr3Ju-13">
          <mxGeometry x="30" y="370" width="100" height="60" as="geometry" />
        </mxCell>
        <mxCell id="fE4-dgEbrBtRc29Lr3Ju-105" style="edgeStyle=orthogonalEdgeStyle;rounded=0;orthogonalLoop=1;jettySize=auto;html=1;exitX=0.5;exitY=1;exitDx=0;exitDy=0;" edge="1" parent="fE4-dgEbrBtRc29Lr3Ju-13" source="fE4-dgEbrBtRc29Lr3Ju-100" target="fE4-dgEbrBtRc29Lr3Ju-18">
          <mxGeometry relative="1" as="geometry" />
        </mxCell>
        <mxCell id="fE4-dgEbrBtRc29Lr3Ju-100" value="&lt;span style=&quot;font-size: 12px;&quot;&gt;创建新计划&lt;/span&gt;&lt;div&gt;&lt;span style=&quot;font-size: 12px;&quot;&gt;待合并计划字段值到新计划中&lt;/span&gt;&lt;/div&gt;" style="whiteSpace=wrap;html=1;fontSize=8;fontFamily=Verdana;rounded=0;shadow=0;labelBackgroundColor=none;strokeWidth=1;" vertex="1" parent="fE4-dgEbrBtRc29Lr3Ju-13">
          <mxGeometry x="30" y="170" width="100" height="60" as="geometry" />
        </mxCell>
        <mxCell id="fE4-dgEbrBtRc29Lr3Ju-117" style="edgeStyle=orthogonalEdgeStyle;rounded=0;orthogonalLoop=1;jettySize=auto;html=1;exitX=0.5;exitY=1;exitDx=0;exitDy=0;" edge="1" parent="fE4-dgEbrBtRc29Lr3Ju-13" source="fE4-dgEbrBtRc29Lr3Ju-106" target="fE4-dgEbrBtRc29Lr3Ju-116">
          <mxGeometry relative="1" as="geometry" />
        </mxCell>
        <mxCell id="fE4-dgEbrBtRc29Lr3Ju-122" value="查询到" style="edgeLabel;html=1;align=center;verticalAlign=middle;resizable=0;points=[];" vertex="1" connectable="0" parent="fE4-dgEbrBtRc29Lr3Ju-117">
          <mxGeometry x="-0.36" y="2" relative="1" as="geometry">
            <mxPoint as="offset" />
          </mxGeometry>
        </mxCell>
        <mxCell id="fE4-dgEbrBtRc29Lr3Ju-118" style="edgeStyle=orthogonalEdgeStyle;rounded=0;orthogonalLoop=1;jettySize=auto;html=1;exitX=0;exitY=0.5;exitDx=0;exitDy=0;" edge="1" parent="fE4-dgEbrBtRc29Lr3Ju-13" source="fE4-dgEbrBtRc29Lr3Ju-106">
          <mxGeometry relative="1" as="geometry">
            <mxPoint x="-250" y="660" as="targetPoint" />
            <Array as="points">
              <mxPoint x="10" y="507" />
              <mxPoint x="10" y="660" />
              <mxPoint x="-250" y="660" />
            </Array>
          </mxGeometry>
        </mxCell>
        <mxCell id="fE4-dgEbrBtRc29Lr3Ju-106" value="&lt;span style=&quot;font-size: 12px;&quot;&gt;根据合并计划的人员id查询班组信息&lt;/span&gt;" style="rhombus;whiteSpace=wrap;html=1;rounded=0;shadow=0;labelBackgroundColor=none;strokeWidth=1;fontFamily=Verdana;fontSize=8;align=center;" vertex="1" parent="fE4-dgEbrBtRc29Lr3Ju-13">
          <mxGeometry x="30" y="470" width="100" height="75" as="geometry" />
        </mxCell>
        <mxCell id="fE4-dgEbrBtRc29Lr3Ju-126" style="edgeStyle=orthogonalEdgeStyle;rounded=0;orthogonalLoop=1;jettySize=auto;html=1;exitX=0.5;exitY=1;exitDx=0;exitDy=0;entryX=0.5;entryY=0;entryDx=0;entryDy=0;" edge="1" parent="fE4-dgEbrBtRc29Lr3Ju-13" source="fE4-dgEbrBtRc29Lr3Ju-116" target="fE4-dgEbrBtRc29Lr3Ju-125">
          <mxGeometry relative="1" as="geometry" />
        </mxCell>
        <mxCell id="fE4-dgEbrBtRc29Lr3Ju-116" value="&lt;span style=&quot;font-size: 12px;&quot;&gt;组装并设置&lt;/span&gt;&lt;div&gt;&lt;span style=&quot;font-size: 12px;&quot;&gt;新计划字段值&lt;/span&gt;&lt;/div&gt;" style="whiteSpace=wrap;html=1;fontSize=8;fontFamily=Verdana;rounded=0;shadow=0;labelBackgroundColor=none;strokeWidth=1;" vertex="1" parent="fE4-dgEbrBtRc29Lr3Ju-13">
          <mxGeometry x="30" y="590" width="100" height="60" as="geometry" />
        </mxCell>
        <mxCell id="fE4-dgEbrBtRc29Lr3Ju-121" value="未查询到" style="edgeLabel;html=1;align=center;verticalAlign=middle;resizable=0;points=[];" vertex="1" connectable="0" parent="fE4-dgEbrBtRc29Lr3Ju-13">
          <mxGeometry x="22.199004400496733" y="544.9988004955997" as="geometry" />
        </mxCell>
        <mxCell id="fE4-dgEbrBtRc29Lr3Ju-131" style="edgeStyle=orthogonalEdgeStyle;rounded=0;orthogonalLoop=1;jettySize=auto;html=1;exitX=0.5;exitY=1;exitDx=0;exitDy=0;entryX=0.5;entryY=0;entryDx=0;entryDy=0;" edge="1" parent="fE4-dgEbrBtRc29Lr3Ju-13" source="fE4-dgEbrBtRc29Lr3Ju-125" target="fE4-dgEbrBtRc29Lr3Ju-128">
          <mxGeometry relative="1" as="geometry" />
        </mxCell>
        <mxCell id="fE4-dgEbrBtRc29Lr3Ju-125" value="&lt;span style=&quot;font-size: 12px;&quot;&gt;更新待合并计划的是否合并、合并后检修计划id&lt;/span&gt;" style="whiteSpace=wrap;html=1;fontSize=8;fontFamily=Verdana;rounded=0;shadow=0;labelBackgroundColor=none;strokeWidth=1;" vertex="1" parent="fE4-dgEbrBtRc29Lr3Ju-13">
          <mxGeometry x="30" y="690" width="100" height="60" as="geometry" />
        </mxCell>
        <mxCell id="fE4-dgEbrBtRc29Lr3Ju-128" value="&lt;span style=&quot;font-size: 12px;&quot;&gt;保存&lt;/span&gt;&lt;div&gt;&lt;span style=&quot;font-size: 12px;&quot;&gt;新检修计划&lt;/span&gt;&lt;/div&gt;" style="whiteSpace=wrap;html=1;fontSize=8;fontFamily=Verdana;rounded=0;shadow=0;labelBackgroundColor=none;strokeWidth=1;" vertex="1" parent="fE4-dgEbrBtRc29Lr3Ju-13">
          <mxGeometry x="30" y="790" width="100" height="60" as="geometry" />
        </mxCell>
        <mxCell id="fE4-dgEbrBtRc29Lr3Ju-21" value="新检修计划的工作处理" style="swimlane;html=1;startSize=20;" vertex="1" parent="fE4-dgEbrBtRc29Lr3Ju-1">
          <mxGeometry x="480" y="20" width="160" height="960" as="geometry" />
        </mxCell>
        <mxCell id="fE4-dgEbrBtRc29Lr3Ju-27" style="edgeStyle=orthogonalEdgeStyle;rounded=0;orthogonalLoop=1;jettySize=auto;html=1;exitX=0.5;exitY=1;exitDx=0;exitDy=0;" edge="1" parent="fE4-dgEbrBtRc29Lr3Ju-21" source="fE4-dgEbrBtRc29Lr3Ju-28" target="fE4-dgEbrBtRc29Lr3Ju-30">
          <mxGeometry relative="1" as="geometry" />
        </mxCell>
        <mxCell id="fE4-dgEbrBtRc29Lr3Ju-28" value="&lt;div&gt;&lt;span style=&quot;font-size: 12px;&quot;&gt;查询&lt;/span&gt;&lt;span style=&quot;font-size: 12px;&quot;&gt;&lt;/span&gt;&lt;/div&gt;&lt;span style=&quot;font-size: 12px;&quot;&gt;待合并计划的站线信息并去重&lt;br&gt;&lt;/span&gt;" style="whiteSpace=wrap;html=1;fontSize=8;fontFamily=Verdana;rounded=0;shadow=0;labelBackgroundColor=none;strokeWidth=1;" vertex="1" parent="fE4-dgEbrBtRc29Lr3Ju-21">
          <mxGeometry x="30" y="270" width="100" height="60" as="geometry" />
        </mxCell>
        <mxCell id="fE4-dgEbrBtRc29Lr3Ju-30" value="&lt;span style=&quot;font-size: 12px;&quot;&gt;保存新计划的站线&lt;/span&gt;" style="whiteSpace=wrap;html=1;fontSize=8;fontFamily=Verdana;rounded=0;shadow=0;labelBackgroundColor=none;strokeWidth=1;" vertex="1" parent="fE4-dgEbrBtRc29Lr3Ju-21">
          <mxGeometry x="30" y="370" width="100" height="60" as="geometry" />
        </mxCell>
        <mxCell id="fE4-dgEbrBtRc29Lr3Ju-132" style="edgeStyle=orthogonalEdgeStyle;rounded=0;orthogonalLoop=1;jettySize=auto;html=1;exitX=0.5;exitY=1;exitDx=0;exitDy=0;" edge="1" parent="fE4-dgEbrBtRc29Lr3Ju-21" source="fE4-dgEbrBtRc29Lr3Ju-123" target="fE4-dgEbrBtRc29Lr3Ju-28">
          <mxGeometry relative="1" as="geometry" />
        </mxCell>
        <mxCell id="fE4-dgEbrBtRc29Lr3Ju-123" value="&lt;span style=&quot;font-size: 12px;&quot;&gt;去重工作任务&lt;/span&gt;&lt;div&gt;&lt;span style=&quot;font-size: 12px;&quot;&gt;保存检修计划于工作任务关联&lt;/span&gt;&lt;/div&gt;" style="whiteSpace=wrap;html=1;fontSize=8;fontFamily=Verdana;rounded=0;shadow=0;labelBackgroundColor=none;strokeWidth=1;" vertex="1" parent="fE4-dgEbrBtRc29Lr3Ju-21">
          <mxGeometry x="30" y="170" width="100" height="60" as="geometry" />
        </mxCell>
        <mxCell id="fE4-dgEbrBtRc29Lr3Ju-49" value="停电范围更新" style="swimlane;html=1;startSize=20;" vertex="1" parent="fE4-dgEbrBtRc29Lr3Ju-1">
          <mxGeometry x="640" y="20" width="160" height="960" as="geometry" />
        </mxCell>
        <mxCell id="fE4-dgEbrBtRc29Lr3Ju-136" style="edgeStyle=orthogonalEdgeStyle;rounded=0;orthogonalLoop=1;jettySize=auto;html=1;exitX=0.5;exitY=1;exitDx=0;exitDy=0;entryX=0.5;entryY=0;entryDx=0;entryDy=0;" edge="1" parent="fE4-dgEbrBtRc29Lr3Ju-49" source="fE4-dgEbrBtRc29Lr3Ju-134" target="fE4-dgEbrBtRc29Lr3Ju-135">
          <mxGeometry relative="1" as="geometry" />
        </mxCell>
        <mxCell id="fE4-dgEbrBtRc29Lr3Ju-134" value="&lt;div&gt;&lt;span style=&quot;font-size: 12px;&quot;&gt;查询&lt;/span&gt;&lt;span style=&quot;font-size: 12px;&quot;&gt;&lt;/span&gt;&lt;/div&gt;&lt;span style=&quot;font-size: 12px;&quot;&gt;待合并计划的停电边界设备信息&lt;/span&gt;" style="whiteSpace=wrap;html=1;fontSize=8;fontFamily=Verdana;rounded=0;shadow=0;labelBackgroundColor=none;strokeWidth=1;" vertex="1" parent="fE4-dgEbrBtRc29Lr3Ju-49">
          <mxGeometry x="30" y="170" width="100" height="60" as="geometry" />
        </mxCell>
        <mxCell id="fE4-dgEbrBtRc29Lr3Ju-144" style="edgeStyle=orthogonalEdgeStyle;rounded=0;orthogonalLoop=1;jettySize=auto;html=1;exitX=0.5;exitY=1;exitDx=0;exitDy=0;entryX=0.5;entryY=0;entryDx=0;entryDy=0;" edge="1" parent="fE4-dgEbrBtRc29Lr3Ju-49" source="fE4-dgEbrBtRc29Lr3Ju-135" target="fE4-dgEbrBtRc29Lr3Ju-137">
          <mxGeometry relative="1" as="geometry" />
        </mxCell>
        <mxCell id="fE4-dgEbrBtRc29Lr3Ju-135" value="&lt;span style=&quot;font-size: 12px;&quot;&gt;保存新计划的停电边界设备&lt;/span&gt;" style="whiteSpace=wrap;html=1;fontSize=8;fontFamily=Verdana;rounded=0;shadow=0;labelBackgroundColor=none;strokeWidth=1;" vertex="1" parent="fE4-dgEbrBtRc29Lr3Ju-49">
          <mxGeometry x="30" y="270" width="100" height="60" as="geometry" />
        </mxCell>
        <mxCell id="fE4-dgEbrBtRc29Lr3Ju-145" style="edgeStyle=orthogonalEdgeStyle;rounded=0;orthogonalLoop=1;jettySize=auto;html=1;exitX=0.5;exitY=1;exitDx=0;exitDy=0;entryX=0.5;entryY=0;entryDx=0;entryDy=0;" edge="1" parent="fE4-dgEbrBtRc29Lr3Ju-49" source="fE4-dgEbrBtRc29Lr3Ju-137" target="fE4-dgEbrBtRc29Lr3Ju-143">
          <mxGeometry relative="1" as="geometry" />
        </mxCell>
        <mxCell id="fE4-dgEbrBtRc29Lr3Ju-137" value="&lt;div&gt;&lt;span style=&quot;font-size: 12px;&quot;&gt;查询&lt;/span&gt;&lt;span style=&quot;font-size: 12px;&quot;&gt;&lt;/span&gt;&lt;/div&gt;&lt;span style=&quot;font-size: 12px;&quot;&gt;待合并计划的检修计划停电范围信息&lt;/span&gt;" style="whiteSpace=wrap;html=1;fontSize=8;fontFamily=Verdana;rounded=0;shadow=0;labelBackgroundColor=none;strokeWidth=1;" vertex="1" parent="fE4-dgEbrBtRc29Lr3Ju-49">
          <mxGeometry x="30" y="370" width="100" height="60" as="geometry" />
        </mxCell>
        <mxCell id="fE4-dgEbrBtRc29Lr3Ju-143" value="&lt;span style=&quot;font-size: 12px;&quot;&gt;保存新计划的&lt;/span&gt;&lt;span style=&quot;font-size: 12px;&quot;&gt;检修计划停电范围&lt;/span&gt;" style="whiteSpace=wrap;html=1;fontSize=8;fontFamily=Verdana;rounded=0;shadow=0;labelBackgroundColor=none;strokeWidth=1;" vertex="1" parent="fE4-dgEbrBtRc29Lr3Ju-49">
          <mxGeometry x="30" y="470" width="100" height="60" as="geometry" />
        </mxCell>
        <mxCell id="fE4-dgEbrBtRc29Lr3Ju-64" value="" style="edgeStyle=orthogonalEdgeStyle;rounded=0;orthogonalLoop=1;jettySize=auto;html=1;" edge="1" parent="fE4-dgEbrBtRc29Lr3Ju-1" source="fE4-dgEbrBtRc29Lr3Ju-5">
          <mxGeometry relative="1" as="geometry">
            <mxPoint x="190" y="217.5" as="targetPoint" />
          </mxGeometry>
        </mxCell>
        <mxCell id="fE4-dgEbrBtRc29Lr3Ju-65" value="是" style="edgeLabel;html=1;align=center;verticalAlign=middle;resizable=0;points=[];" vertex="1" connectable="0" parent="fE4-dgEbrBtRc29Lr3Ju-64">
          <mxGeometry x="-0.5771" relative="1" as="geometry">
            <mxPoint as="offset" />
          </mxGeometry>
        </mxCell>
        <mxCell id="fE4-dgEbrBtRc29Lr3Ju-70" value="数据完善并保存" style="swimlane;html=1;startSize=20;" vertex="1" parent="fE4-dgEbrBtRc29Lr3Ju-1">
          <mxGeometry x="800" y="20" width="160" height="960" as="geometry" />
        </mxCell>
        <mxCell id="fE4-dgEbrBtRc29Lr3Ju-71" style="edgeStyle=orthogonalEdgeStyle;rounded=0;orthogonalLoop=1;jettySize=auto;html=1;exitX=0.5;exitY=1;exitDx=0;exitDy=0;entryX=0.5;entryY=0;entryDx=0;entryDy=0;" edge="1" parent="fE4-dgEbrBtRc29Lr3Ju-70" source="fE4-dgEbrBtRc29Lr3Ju-72" target="fE4-dgEbrBtRc29Lr3Ju-74">
          <mxGeometry relative="1" as="geometry" />
        </mxCell>
        <mxCell id="fE4-dgEbrBtRc29Lr3Ju-72" value="&lt;div&gt;&lt;span style=&quot;font-size: 12px;&quot;&gt;检修发送内容配置&lt;/span&gt;&lt;/div&gt;&lt;div&gt;&lt;span style=&quot;font-size: 12px;&quot;&gt;数据组装并入库&lt;/span&gt;&lt;/div&gt;" style="whiteSpace=wrap;html=1;fontSize=8;fontFamily=Verdana;rounded=0;shadow=0;labelBackgroundColor=none;strokeWidth=1;" vertex="1" parent="fE4-dgEbrBtRc29Lr3Ju-70">
          <mxGeometry x="30" y="170" width="100" height="60" as="geometry" />
        </mxCell>
        <mxCell id="fE4-dgEbrBtRc29Lr3Ju-73" style="edgeStyle=orthogonalEdgeStyle;rounded=0;orthogonalLoop=1;jettySize=auto;html=1;exitX=0.5;exitY=1;exitDx=0;exitDy=0;entryX=0.5;entryY=0;entryDx=0;entryDy=0;" edge="1" parent="fE4-dgEbrBtRc29Lr3Ju-70" source="fE4-dgEbrBtRc29Lr3Ju-74" target="fE4-dgEbrBtRc29Lr3Ju-76">
          <mxGeometry relative="1" as="geometry" />
        </mxCell>
        <mxCell id="fE4-dgEbrBtRc29Lr3Ju-74" value="&lt;span style=&quot;font-size: 12px;&quot;&gt;检修扩展属性&lt;/span&gt;&lt;div&gt;&lt;span style=&quot;font-size: 12px;&quot;&gt;数据组装并入库&lt;/span&gt;&lt;/div&gt;" style="whiteSpace=wrap;html=1;fontSize=8;fontFamily=Verdana;rounded=0;shadow=0;labelBackgroundColor=none;strokeWidth=1;" vertex="1" parent="fE4-dgEbrBtRc29Lr3Ju-70">
          <mxGeometry x="30" y="270" width="100" height="60" as="geometry" />
        </mxCell>
        <mxCell id="fE4-dgEbrBtRc29Lr3Ju-76" value="&lt;span style=&quot;font-size: 12px;&quot;&gt;构建检修计划变更数据并入库&lt;/span&gt;" style="whiteSpace=wrap;html=1;fontSize=8;fontFamily=Verdana;rounded=0;shadow=0;labelBackgroundColor=none;strokeWidth=1;" vertex="1" parent="fE4-dgEbrBtRc29Lr3Ju-70">
          <mxGeometry x="30" y="360" width="100" height="60" as="geometry" />
        </mxCell>
        <mxCell id="fE4-dgEbrBtRc29Lr3Ju-81" style="edgeStyle=orthogonalEdgeStyle;rounded=0;orthogonalLoop=1;jettySize=auto;html=1;exitX=0.5;exitY=1;exitDx=0;exitDy=0;entryX=0.5;entryY=0;entryDx=0;entryDy=0;" edge="1" parent="fE4-dgEbrBtRc29Lr3Ju-70" source="fE4-dgEbrBtRc29Lr3Ju-76" target="fE4-dgEbrBtRc29Lr3Ju-83">
          <mxGeometry relative="1" as="geometry">
            <mxPoint x="80" y="800" as="targetPoint" />
            <mxPoint x="80" y="690" as="sourcePoint" />
          </mxGeometry>
        </mxCell>
        <mxCell id="fE4-dgEbrBtRc29Lr3Ju-83" value="&lt;span style=&quot;font-size: 12px;&quot;&gt;成功返回&lt;/span&gt;" style="whiteSpace=wrap;html=1;fontSize=8;fontFamily=Verdana;rounded=0;shadow=0;labelBackgroundColor=none;strokeWidth=1;" vertex="1" parent="fE4-dgEbrBtRc29Lr3Ju-70">
          <mxGeometry x="30" y="880" width="100" height="60" as="geometry" />
        </mxCell>
        <mxCell id="fE4-dgEbrBtRc29Lr3Ju-84" style="edgeStyle=orthogonalEdgeStyle;rounded=0;orthogonalLoop=1;jettySize=auto;html=1;entryX=0.5;entryY=0;entryDx=0;entryDy=0;exitX=0.5;exitY=1;exitDx=0;exitDy=0;" edge="1" parent="fE4-dgEbrBtRc29Lr3Ju-1" source="fE4-dgEbrBtRc29Lr3Ju-30" target="fE4-dgEbrBtRc29Lr3Ju-134">
          <mxGeometry relative="1" as="geometry">
            <Array as="points">
              <mxPoint x="560" y="490" />
              <mxPoint x="630" y="490" />
              <mxPoint x="630" y="150" />
              <mxPoint x="720" y="150" />
            </Array>
            <mxPoint x="560" y="820" as="sourcePoint" />
            <mxPoint x="720" y="180" as="targetPoint" />
          </mxGeometry>
        </mxCell>
        <mxCell id="fE4-dgEbrBtRc29Lr3Ju-101" style="edgeStyle=orthogonalEdgeStyle;rounded=0;orthogonalLoop=1;jettySize=auto;html=1;exitX=0.5;exitY=1;exitDx=0;exitDy=0;entryX=0.5;entryY=0;entryDx=0;entryDy=0;" edge="1" parent="fE4-dgEbrBtRc29Lr3Ju-1" source="fE4-dgEbrBtRc29Lr3Ju-93" target="fE4-dgEbrBtRc29Lr3Ju-100">
          <mxGeometry relative="1" as="geometry">
            <mxPoint x="400" y="260" as="targetPoint" />
            <Array as="points">
              <mxPoint x="240" y="620" />
              <mxPoint x="310" y="620" />
              <mxPoint x="310" y="150" />
              <mxPoint x="400" y="150" />
            </Array>
          </mxGeometry>
        </mxCell>
        <mxCell id="fE4-dgEbrBtRc29Lr3Ju-102" value="是" style="edgeLabel;html=1;align=center;verticalAlign=middle;resizable=0;points=[];" vertex="1" connectable="0" parent="fE4-dgEbrBtRc29Lr3Ju-101">
          <mxGeometry x="-0.8458" y="-2" relative="1" as="geometry">
            <mxPoint as="offset" />
          </mxGeometry>
        </mxCell>
        <mxCell id="fE4-dgEbrBtRc29Lr3Ju-124" style="edgeStyle=orthogonalEdgeStyle;rounded=0;orthogonalLoop=1;jettySize=auto;html=1;entryX=0.5;entryY=0;entryDx=0;entryDy=0;exitX=0.5;exitY=1;exitDx=0;exitDy=0;" edge="1" parent="fE4-dgEbrBtRc29Lr3Ju-1" source="fE4-dgEbrBtRc29Lr3Ju-128" target="fE4-dgEbrBtRc29Lr3Ju-123">
          <mxGeometry relative="1" as="geometry">
            <mxPoint x="400" y="890" as="sourcePoint" />
            <Array as="points">
              <mxPoint x="400" y="910" />
              <mxPoint x="470" y="910" />
              <mxPoint x="470" y="150" />
              <mxPoint x="560" y="150" />
            </Array>
          </mxGeometry>
        </mxCell>
        <mxCell id="fE4-dgEbrBtRc29Lr3Ju-146" style="edgeStyle=orthogonalEdgeStyle;rounded=0;orthogonalLoop=1;jettySize=auto;html=1;exitX=0.5;exitY=1;exitDx=0;exitDy=0;entryX=0.5;entryY=0;entryDx=0;entryDy=0;" edge="1" parent="fE4-dgEbrBtRc29Lr3Ju-1" source="fE4-dgEbrBtRc29Lr3Ju-143" target="fE4-dgEbrBtRc29Lr3Ju-72">
          <mxGeometry relative="1" as="geometry">
            <Array as="points">
              <mxPoint x="720" y="570" />
              <mxPoint x="790" y="570" />
              <mxPoint x="790" y="150" />
              <mxPoint x="880" y="150" />
            </Array>
          </mxGeometry>
        </mxCell>
      </root>
    </mxGraphModel>
  </diagram>
</mxfile>
